# Blender v2.79 (sub 0) OBJ File: 'untitled.blend'
# www.blender.org
mtllib arrow.mtl
o BASE_base
v 0.800000 -0.029652 -0.000000
v 0.800000 0.059848 0.000000
v 0.793700 0.059848 0.100300
v 0.793700 -0.029652 0.100300
v 0.774900 -0.029652 0.199000
v 0.774900 0.059848 0.199000
v 0.743800 -0.029652 0.294500
v 0.743800 0.059848 0.294500
v 0.701000 0.059848 0.385400
v 0.701000 -0.029652 0.385400
v 0.647200 0.059848 0.470200
v 0.647200 -0.029652 0.470200
v 0.583200 0.059848 0.547600
v 0.583200 -0.029652 0.547600
v 0.509900 0.059848 0.616400
v 0.509900 -0.029652 0.616400
v 0.428700 0.059848 0.675500
v 0.428700 -0.029652 0.675500
v 0.340600 0.059848 0.723900
v 0.340600 -0.029652 0.723900
v 0.247200 0.059848 0.760800
v 0.247200 -0.029652 0.760800
v 0.149900 0.059848 0.785800
v 0.149900 -0.029652 0.785800
v 0.050200 0.059848 0.798400
v 0.050200 -0.029652 0.798400
v -0.050200 0.059848 0.798400
v -0.050200 -0.029652 0.798400
v -0.149900 0.059848 0.785800
v -0.149900 -0.029652 0.785800
v -0.247200 0.059848 0.760800
v -0.247200 -0.029652 0.760800
v -0.340600 0.059848 0.723900
v -0.340600 -0.029652 0.723900
v -0.428700 0.059848 0.675500
v -0.428700 -0.029652 0.675500
v -0.509900 0.059848 0.616400
v -0.509900 -0.029652 0.616400
v -0.583200 0.059848 0.547600
v -0.583200 -0.029652 0.547600
v -0.647200 0.059848 0.470200
v -0.647200 -0.029652 0.470200
v -0.701000 0.059848 0.385400
v -0.701000 -0.029652 0.385400
v -0.743800 0.059848 0.294500
v -0.743800 -0.029652 0.294500
v -0.774900 0.059848 0.199000
v -0.774900 -0.029652 0.199000
v -0.793700 0.059848 0.100300
v -0.793700 -0.029652 0.100300
v -0.800000 0.059848 0.000000
v -0.800000 -0.029652 -0.000000
v -0.793700 0.059848 -0.100300
v -0.793700 -0.029652 -0.100300
v -0.774900 0.059848 -0.199000
v -0.774900 -0.029652 -0.199000
v -0.743800 0.059848 -0.294500
v -0.743800 -0.029652 -0.294500
v -0.701000 0.059848 -0.385400
v -0.701000 -0.029652 -0.385400
v -0.647200 0.059848 -0.470200
v -0.647200 -0.029652 -0.470200
v -0.583200 0.059848 -0.547600
v -0.583200 -0.029652 -0.547600
v -0.509900 0.059848 -0.616400
v -0.509900 -0.029652 -0.616400
v -0.428700 0.059848 -0.675500
v -0.428700 -0.029652 -0.675500
v -0.340600 0.059848 -0.723900
v -0.340600 -0.029652 -0.723900
v -0.247200 0.059848 -0.760800
v -0.247200 -0.029652 -0.760800
v -0.149900 0.059848 -0.785800
v -0.149900 -0.029652 -0.785800
v -0.050200 0.059848 -0.798400
v -0.050200 -0.029652 -0.798400
v 0.050200 0.059848 -0.798400
v 0.050200 -0.029652 -0.798400
v 0.149900 0.059848 -0.785800
v 0.149900 -0.029652 -0.785800
v 0.247200 0.059848 -0.760800
v 0.247200 -0.029652 -0.760800
v 0.340600 0.059848 -0.723900
v 0.340600 -0.029652 -0.723900
v 0.428700 0.059848 -0.675500
v 0.428700 -0.029652 -0.675500
v 0.509900 0.059848 -0.616400
v 0.509900 -0.029652 -0.616400
v 0.583200 0.059848 -0.547600
v 0.583200 -0.029652 -0.547600
v 0.647200 0.059848 -0.470200
v 0.647200 -0.029652 -0.470200
v 0.701000 0.059848 -0.385400
v 0.701000 -0.029652 -0.385400
v 0.743800 0.059848 -0.294500
v 0.743800 -0.029652 -0.294500
v 0.774900 0.059848 -0.199000
v 0.774900 -0.029652 -0.199000
v 0.793700 0.059848 -0.100300
v 0.793700 -0.029652 -0.100300
v 0.000000 -0.029652 -0.000000
v 0.000000 0.059848 0.000000
vt 0.750000 1.000000
vt 0.750000 0.000000
vt 0.730000 0.000000
vt 0.730000 1.000000
vt 0.710000 1.000000
vt 0.710000 0.000000
vt 0.690000 1.000000
vt 0.690000 0.000000
vt 0.670000 0.000000
vt 0.670000 1.000000
vt 0.650000 0.000000
vt 0.650000 1.000000
vt 0.630000 0.000000
vt 0.630000 1.000000
vt 0.610000 0.000000
vt 0.610000 1.000000
vt 0.590000 0.000000
vt 0.590000 1.000000
vt 0.570000 0.000000
vt 0.570000 1.000000
vt 0.550000 0.000000
vt 0.550000 1.000000
vt 0.530000 0.000000
vt 0.530000 1.000000
vt 0.510000 0.000000
vt 0.510000 1.000000
vt 0.490000 0.000000
vt 0.490000 1.000000
vt 0.470000 0.000000
vt 0.470000 1.000000
vt 0.450000 0.000000
vt 0.450000 1.000000
vt 0.430000 0.000000
vt 0.430000 1.000000
vt 0.410000 0.000000
vt 0.410000 1.000000
vt 0.390000 0.000000
vt 0.390000 1.000000
vt 0.370000 0.000000
vt 0.370000 1.000000
vt 0.350000 0.000000
vt 0.350000 1.000000
vt 0.330000 0.000000
vt 0.330000 1.000000
vt 0.310000 0.000000
vt 0.310000 1.000000
vt 0.290000 0.000000
vt 0.290000 1.000000
vt 0.270000 0.000000
vt 0.270000 1.000000
vt 0.250000 0.000000
vt 0.250000 1.000000
vt 0.230000 0.000000
vt 0.230000 1.000000
vt 0.210000 0.000000
vt 0.210000 1.000000
vt 0.190000 0.000000
vt 0.190000 1.000000
vt 0.170000 0.000000
vt 0.170000 1.000000
vt 0.150000 0.000000
vt 0.150000 1.000000
vt 0.130000 0.000000
vt 0.130000 1.000000
vt 0.110000 0.000000
vt 0.110000 1.000000
vt 0.090000 0.000000
vt 0.090000 1.000000
vt 0.070000 0.000000
vt 0.070000 1.000000
vt 0.050000 0.000000
vt 0.050000 1.000000
vt 0.030000 0.000000
vt 0.030000 1.000000
vt 0.010000 0.000000
vt 0.010000 1.000000
vt -0.010000 0.000000
vt -0.010000 1.000000
vt 0.970000 0.000000
vt 0.970000 1.000000
vt 0.990000 1.000000
vt 0.990000 0.000000
vt 0.950000 0.000000
vt 0.950000 1.000000
vt 0.930000 0.000000
vt 0.930000 1.000000
vt 0.910000 0.000000
vt 0.910000 1.000000
vt 0.890000 0.000000
vt 0.890000 1.000000
vt 0.870000 0.000000
vt 0.870000 1.000000
vt 0.850000 0.000000
vt 0.850000 1.000000
vt 0.830000 0.000000
vt 0.830000 1.000000
vt 0.810000 0.000000
vt 0.810000 1.000000
vt 0.790000 0.000000
vt 0.790000 1.000000
vt 0.770000 0.000000
vt 0.770000 1.000000
vt 0.500000 1.000000
vt -0.022000 1.000000
vt 0.500000 0.000000
vn 0.7207 -0.6933 -0.0000
vn 0.7207 0.6933 0.0000
vn 0.7150 0.6933 0.0902
vn 0.7150 -0.6933 0.0902
vn 0.6981 -0.6931 0.1794
vn 0.6981 0.6931 0.1794
vn 0.6699 -0.6933 0.2656
vn 0.6699 0.6933 0.2656
vn 0.6315 0.6933 0.3472
vn 0.6315 -0.6933 0.3472
vn 0.5831 0.6933 0.4235
vn 0.5831 -0.6933 0.4235
vn 0.5254 0.6932 0.4934
vn 0.5254 -0.6932 0.4934
vn 0.4593 0.6932 0.5555
vn 0.4593 -0.6932 0.5555
vn 0.3864 0.6931 0.6085
vn 0.3864 -0.6931 0.6085
vn 0.3065 0.6932 0.6523
vn 0.3069 -0.6932 0.6522
vn 0.2225 0.6933 0.6854
vn 0.2225 -0.6933 0.6854
vn 0.1351 0.6932 0.7079
vn 0.1351 -0.6932 0.7079
vn 0.0453 0.6932 0.7193
vn 0.0453 -0.6932 0.7193
vn -0.0453 0.6932 0.7193
vn -0.0453 -0.6932 0.7193
vn -0.1351 0.6932 0.7079
vn -0.1351 -0.6932 0.7079
vn -0.2225 0.6933 0.6854
vn -0.2225 -0.6933 0.6854
vn -0.3069 0.6932 0.6522
vn -0.3065 -0.6932 0.6523
vn -0.3864 0.6931 0.6085
vn -0.3864 -0.6931 0.6085
vn -0.4593 0.6932 0.5555
vn -0.4593 -0.6932 0.5555
vn -0.5254 0.6932 0.4934
vn -0.5254 -0.6932 0.4934
vn -0.5831 0.6933 0.4235
vn -0.5831 -0.6933 0.4235
vn -0.6315 0.6933 0.3472
vn -0.6315 -0.6933 0.3472
vn -0.6699 0.6933 0.2656
vn -0.6699 -0.6933 0.2656
vn -0.6981 0.6931 0.1794
vn -0.6981 -0.6931 0.1794
vn -0.7150 0.6933 0.0902
vn -0.7150 -0.6933 0.0902
vn -0.7207 0.6933 0.0000
vn -0.7207 -0.6933 -0.0000
vn -0.7150 0.6933 -0.0902
vn -0.7150 -0.6933 -0.0902
vn -0.6981 0.6931 -0.1794
vn -0.6981 -0.6931 -0.1794
vn -0.6699 0.6933 -0.2656
vn -0.6699 -0.6933 -0.2656
vn -0.6315 0.6933 -0.3472
vn -0.6315 -0.6933 -0.3472
vn -0.5831 0.6933 -0.4235
vn -0.5831 -0.6933 -0.4235
vn -0.5254 0.6932 -0.4934
vn -0.5254 -0.6932 -0.4934
vn -0.4593 0.6932 -0.5555
vn -0.4593 -0.6932 -0.5555
vn -0.3859 0.6935 -0.6084
vn -0.3864 -0.6931 -0.6085
vn -0.3065 0.6932 -0.6523
vn -0.3065 -0.6932 -0.6523
vn -0.2225 0.6933 -0.6854
vn -0.2225 -0.6933 -0.6854
vn -0.1351 0.6932 -0.7079
vn -0.1351 -0.6932 -0.7079
vn -0.0453 0.6932 -0.7193
vn -0.0453 -0.6932 -0.7193
vn 0.0453 0.6932 -0.7193
vn 0.0453 -0.6932 -0.7193
vn 0.1351 0.6932 -0.7079
vn 0.1351 -0.6932 -0.7079
vn 0.2225 0.6933 -0.6854
vn 0.2225 -0.6933 -0.6854
vn 0.3065 0.6932 -0.6523
vn 0.3069 -0.6932 -0.6522
vn 0.3864 0.6931 -0.6085
vn 0.3864 -0.6931 -0.6085
vn 0.4593 0.6932 -0.5555
vn 0.4593 -0.6932 -0.5555
vn 0.5254 0.6932 -0.4934
vn 0.5254 -0.6932 -0.4934
vn 0.5831 0.6933 -0.4235
vn 0.5831 -0.6933 -0.4235
vn 0.6315 0.6933 -0.3472
vn 0.6315 -0.6933 -0.3472
vn 0.6699 0.6933 -0.2656
vn 0.6699 -0.6933 -0.2656
vn 0.6981 0.6931 -0.1794
vn 0.6981 -0.6931 -0.1794
vn 0.7150 0.6933 -0.0902
vn 0.7150 -0.6933 -0.0902
vn 0.0000 -1.0000 -0.0000
vn 0.0000 1.0000 0.0000
usemtl outer_ring
s 1
f 1/1/1 2/2/2 3/3/3 4/4/4
f 5/5/5 4/4/4 3/3/3 6/6/6
f 7/7/7 5/5/5 6/6/6 8/8/8
f 8/8/8 9/9/9 10/10/10 7/7/7
f 10/10/10 9/9/9 11/11/11 12/12/12
f 13/13/13 14/14/14 12/12/12 11/11/11
f 13/13/13 15/15/15 16/16/16 14/14/14
f 16/16/16 15/15/15 17/17/17 18/18/18
f 19/19/19 20/20/20 18/18/18 17/17/17
f 20/20/20 19/19/19 21/21/21 22/22/22
f 23/23/23 24/24/24 22/22/22 21/21/21
f 24/24/24 23/23/23 25/25/25 26/26/26
f 27/27/27 28/28/28 26/26/26 25/25/25
f 28/28/28 27/27/27 29/29/29 30/30/30
f 31/31/31 32/32/32 30/30/30 29/29/29
f 32/32/32 31/31/31 33/33/33 34/34/34
f 35/35/35 36/36/36 34/34/34 33/33/33
f 36/36/36 35/35/35 37/37/37 38/38/38
f 39/39/39 40/40/40 38/38/38 37/37/37
f 40/40/40 39/39/39 41/41/41 42/42/42
f 43/43/43 44/44/44 42/42/42 41/41/41
f 44/44/44 43/43/43 45/45/45 46/46/46
f 47/47/47 48/48/48 46/46/46 45/45/45
f 48/48/48 47/47/47 49/49/49 50/50/50
f 51/51/51 52/52/52 50/50/50 49/49/49
f 52/52/52 51/51/51 53/53/53 54/54/54
f 55/55/55 56/56/56 54/54/54 53/53/53
f 56/56/56 55/55/55 57/57/57 58/58/58
f 59/59/59 60/60/60 58/58/58 57/57/57
f 60/60/60 59/59/59 61/61/61 62/62/62
f 63/63/63 64/64/64 62/62/62 61/61/61
f 64/64/64 63/63/63 65/65/65 66/66/66
f 67/67/67 68/68/68 66/66/66 65/65/65
f 68/68/68 67/67/67 69/69/69 70/70/70
f 71/71/71 72/72/72 70/70/70 69/69/69
f 72/72/72 71/71/71 73/73/73 74/74/74
f 75/75/75 76/76/76 74/74/74 73/73/73
f 76/76/76 75/75/75 77/77/77 78/78/78
f 79/79/79 80/80/80 78/81/78 77/82/77
f 80/80/80 79/79/79 81/83/81 82/84/82
f 83/85/83 84/86/84 82/84/82 81/83/81
f 84/86/84 83/85/83 85/87/85 86/88/86
f 87/89/87 88/90/88 86/88/86 85/87/85
f 88/90/88 87/89/87 89/91/89 90/92/90
f 91/93/91 92/94/92 90/92/90 89/91/89
f 92/94/92 91/93/91 93/95/93 94/96/94
f 95/97/95 96/98/96 94/96/94 93/95/93
f 96/98/96 95/97/95 97/99/97 98/100/98
f 99/101/99 100/102/100 98/100/98 97/99/97
f 99/101/99 2/2/2 1/1/1 100/102/100
usemtl base_ring
f 101/103/101 100/102/100 1/1/1 4/4/4
f 7/7/7 101/103/101 4/4/4 5/5/5
f 7/7/7 10/10/10 12/12/12 101/103/101
f 14/14/14 16/16/16 101/103/101 12/12/12
f 16/16/16 18/18/18 20/20/20 101/103/101
f 20/20/20 22/22/22 24/24/24 101/103/101
f 24/24/24 26/26/26 28/28/28 101/103/101
f 28/28/28 30/30/30 32/32/32 101/103/101
f 32/32/32 34/34/34 36/36/36 101/103/101
f 36/36/36 38/38/38 40/40/40 101/103/101
f 40/40/40 42/42/42 44/44/44 101/103/101
f 44/44/44 46/46/46 48/48/48 101/103/101
f 48/48/48 50/50/50 52/52/52 101/103/101
f 52/52/52 54/54/54 56/56/56 101/103/101
f 56/56/56 58/58/58 60/60/60 101/103/101
f 60/60/60 62/62/62 64/64/64 101/103/101
f 64/64/64 66/66/66 68/68/68 101/103/101
f 68/68/68 70/70/70 72/72/72 101/103/101
f 72/72/72 74/74/74 76/76/76 101/103/101
f 76/76/76 78/78/78 80/104/80 101/103/101
f 80/80/80 82/84/82 84/86/84 101/103/101
f 84/86/84 86/88/86 88/90/88 101/103/101
f 88/90/88 90/92/90 92/94/92 101/103/101
f 92/94/92 94/96/94 96/98/96 101/103/101
f 96/98/96 98/100/98 100/102/100 101/103/101
f 102/105/102 6/6/6 3/3/3 2/2/2
f 6/6/6 102/105/102 9/9/9 8/8/8
f 11/11/11 9/9/9 102/105/102 13/13/13
f 13/13/13 102/105/102 17/17/17 15/15/15
f 19/19/19 17/17/17 102/105/102 21/21/21
f 23/23/23 21/21/21 102/105/102 25/25/25
f 27/27/27 25/25/25 102/105/102 29/29/29
f 31/31/31 29/29/29 102/105/102 33/33/33
f 35/35/35 33/33/33 102/105/102 37/37/37
f 39/39/39 37/37/37 102/105/102 41/41/41
f 43/43/43 41/41/41 102/105/102 45/45/45
f 47/47/47 45/45/45 102/105/102 49/49/49
f 51/51/51 49/49/49 102/105/102 53/53/53
f 55/55/55 53/53/53 102/105/102 57/57/57
f 59/59/59 57/57/57 102/105/102 61/61/61
f 63/63/63 61/61/61 102/105/102 65/65/65
f 67/67/67 65/65/65 102/105/102 69/69/69
f 71/71/71 69/69/69 102/105/102 73/73/73
f 75/75/75 73/73/73 102/105/102 77/77/77
f 79/79/79 77/82/77 102/105/102 81/83/81
f 83/85/83 81/83/81 102/105/102 85/87/85
f 87/89/87 85/87/85 102/105/102 89/91/89
f 91/93/91 89/91/89 102/105/102 93/95/93
f 95/97/95 93/95/93 102/105/102 97/99/97
f 2/2/2 99/101/99 97/99/97 102/105/102
o ARROW_vehicle
v 0.562900 0.066188 -0.001500
v -0.433200 0.064985 -0.445200
v -0.066932 0.136984 0.000200
v -0.303600 0.063252 0.000400
v -0.434100 0.065283 0.478900
vt 0.000000 0.000000
vt 1.000000 0.000000
vt 1.000000 1.000000
vt 1.000000 0.000000
vt 0.000000 0.000000
vt 1.000000 0.000000
vt 1.000000 1.000000
vt 0.000000 0.000000
vt 0.000000 0.000000
vn 0.0029 -1.0000 0.0003
vn -0.5589 0.8101 0.1770
vn -0.5625 0.8102 0.1651
vn -0.5629 0.8102 0.1635
vn -0.5626 0.8115 -0.1577
vn -0.5593 0.8116 -0.1691
vn -0.5630 0.8115 -0.1564
vn 0.1826 0.8937 -0.4098
vn 0.1757 0.8937 -0.4127
vn 0.1686 0.8938 -0.4155
vn 0.1761 0.9002 0.3982
vn 0.1828 0.9001 0.3954
vn 0.1895 0.9001 0.3923
usemtl back_left
s 1
f 106/106/103 104/107/103 103/108/103 107/109/103
f 104/110/104 106/111/105 105/112/106
usemtl back_right
f 106/106/107 107/109/108 105/112/109
usemtl left_front
f 103/113/110 104/107/111 105/112/112
usemtl right_front
f 105/114/113 107/109/114 103/108/115
